<svg xmlns="http://www.w3.org/2000/svg" xmlns:xlink="http://www.w3.org/1999/xlink" zoomAndPan="magnify" preserveAspectRatio="xMidYMid meet" version="1.0" viewBox="108.72 209.91 679.05 417.09"><defs><g/><clipPath id="ef6ec63221"><path d="M 243.878906 462 L 355.628906 462 L 355.628906 626.46875 L 243.878906 626.46875 Z M 243.878906 462 " clip-rule="nonzero"/></clipPath><clipPath id="624df82620"><path d="M 277 587 L 296 587 L 296 626.46875 L 277 626.46875 Z M 277 587 " clip-rule="nonzero"/></clipPath><clipPath id="de0f863b5b"><path d="M 299 587 L 318 587 L 318 626.46875 L 299 626.46875 Z M 299 587 " clip-rule="nonzero"/></clipPath><clipPath id="f1837364e8"><path d="M 132 460 L 245.636719 460 L 245.636719 624.75 L 132 624.75 Z M 132 460 " clip-rule="nonzero"/></clipPath><clipPath id="0b04346c0f"><path d="M 353.808594 461 L 459.558594 461 L 459.558594 625.609375 L 353.808594 625.609375 Z M 353.808594 461 " clip-rule="nonzero"/></clipPath><clipPath id="0b2669e41b"><path d="M 492 587 L 510 587 L 510 626.46875 L 492 626.46875 Z M 492 587 " clip-rule="nonzero"/></clipPath><clipPath id="17dca2b72c"><path d="M 513 587 L 532 587 L 532 626.46875 L 513 626.46875 Z M 513 587 " clip-rule="nonzero"/></clipPath><clipPath id="03594a71cd"><path d="M 457.992188 462 L 567.492188 462 L 567.492188 626.46875 L 457.992188 626.46875 Z M 457.992188 462 " clip-rule="nonzero"/></clipPath><clipPath id="0f40a403f6"><path d="M 566.640625 463 L 670.140625 463 L 670.140625 627 L 566.640625 627 Z M 566.640625 463 " clip-rule="nonzero"/></clipPath><clipPath id="5e0639a4a3"><path d="M 655.386719 527.175781 L 694.007812 527.175781 L 694.007812 626.832031 L 655.386719 626.832031 Z M 655.386719 527.175781 " clip-rule="nonzero"/></clipPath></defs><path fill="#ffce40" d="M 289.367188 438.3125 C 287.375 436.800781 284.902344 435.894531 282.210938 435.894531 C 275.65625 435.894531 270.339844 441.210938 270.339844 447.765625 C 270.339844 450.890625 271.558594 453.726562 273.535156 455.847656 C 275.457031 447.648438 281.503906 441.035156 289.367188 438.3125 Z M 289.367188 438.3125 " fill-opacity="1" fill-rule="nonzero"/><g clip-path="url(#ef6ec63221)"><path fill="#ffce40" d="M 513.609375 586.738281 C 535.84375 586.738281 545.726562 582.007812 545.726562 582.007812 C 545.726562 566.167969 541.582031 542.25 537.765625 523.582031 C 536.667969 518.207031 535.597656 513.269531 534.660156 509.085938 C 544.207031 516.882812 555.480469 526.496094 565.933594 535.730469 C 567.074219 536.742188 568.492188 537.238281 569.90625 537.238281 C 571.570312 537.238281 573.222656 536.550781 574.410156 535.207031 C 574.621094 534.964844 574.792969 534.703125 574.960938 534.441406 C 575.261719 534.132812 575.542969 533.800781 575.785156 533.425781 L 596.722656 500.917969 L 596.722656 614.722656 C 596.722656 620.980469 601.800781 626.054688 608.0625 626.054688 C 614.316406 626.054688 619.394531 620.980469 619.394531 614.722656 L 619.394531 556.265625 L 623.886719 556.265625 L 623.886719 614.722656 C 623.886719 620.980469 628.964844 626.054688 635.226562 626.054688 C 641.484375 626.054688 646.558594 620.980469 646.558594 614.722656 L 646.558594 500.917969 L 667.5 533.425781 C 668.324219 534.707031 669.523438 535.597656 670.859375 536.0625 C 671.703125 536.476562 672.601562 536.6875 673.492188 536.6875 C 675.5625 536.6875 677.578125 535.613281 678.695312 533.691406 C 678.78125 533.539062 687.75 518.101562 698.640625 502.914062 C 700.796875 499.902344 702.800781 497.226562 704.671875 494.816406 C 704.117188 497.378906 703.523438 500.1875 702.90625 503.25 C 699.421875 520.421875 695.054688 545.351562 691.351562 576.996094 C 691.351562 576.996094 704.539062 581.726562 726.769531 581.726562 C 749.003906 581.726562 762.191406 576.996094 762.191406 576.996094 C 758.679688 546.988281 754.566406 523.011719 751.183594 505.964844 C 750.363281 501.828125 749.585938 498.121094 748.871094 494.816406 C 750.742188 497.226562 752.746094 499.902344 754.902344 502.914062 C 765.792969 518.101562 774.761719 533.539062 774.851562 533.691406 C 775.964844 535.613281 777.980469 536.6875 780.054688 536.6875 C 781.074219 536.6875 782.109375 536.425781 783.058594 535.878906 C 785.929688 534.214844 786.90625 530.542969 785.246094 527.671875 C 784.867188 527.023438 775.933594 511.640625 764.714844 495.984375 C 761.695312 491.769531 758.902344 488.09375 756.300781 484.855469 C 756.160156 484.859375 756.015625 484.867188 755.875 484.867188 C 752.695312 484.867188 747.921875 483.800781 743.246094 478.710938 C 740.3125 475.515625 739.183594 471.296875 738.703125 466.949219 C 733.285156 463.042969 729.539062 462.277344 726.769531 462.277344 C 720.851562 462.277344 710.476562 465.769531 688.828125 495.984375 C 682.796875 504.402344 677.429688 512.734375 673.691406 518.746094 L 646.109375 475.921875 C 644.957031 474.136719 643.085938 473.097656 641.117188 472.933594 C 640.753906 472.875 640.382812 472.839844 640.003906 472.839844 L 603.277344 472.839844 C 602.894531 472.839844 602.523438 472.878906 602.15625 472.9375 C 600.191406 473.101562 598.324219 474.136719 597.175781 475.921875 L 567.847656 521.449219 C 562.898438 517.152344 555.5 510.78125 547.902344 504.453125 C 547.121094 503.800781 546.367188 503.175781 545.625 502.5625 C 544.242188 503.183594 542.558594 503.523438 540.925781 503.523438 C 538.007812 503.523438 533.632812 502.546875 529.359375 497.894531 C 526.519531 494.804688 525.53125 490.695312 525.132812 486.511719 C 523.972656 485.691406 522.933594 484.988281 522.011719 484.390625 C 519.386719 485.355469 516.566406 485.90625 513.609375 485.90625 C 510.65625 485.90625 507.832031 485.355469 505.207031 484.390625 C 500.417969 487.496094 492.636719 493.363281 479.320312 504.453125 C 471.6875 510.804688 464.257812 517.207031 459.308594 521.507812 L 429.949219 475.921875 C 428.796875 474.136719 426.925781 473.101562 424.960938 472.9375 C 424.597656 472.875 424.226562 472.839844 423.84375 472.839844 L 387.117188 472.839844 C 386.734375 472.839844 386.363281 472.875 386 472.9375 C 384.035156 473.101562 382.164062 474.136719 381.011719 475.921875 L 351.652344 521.507812 C 346.703125 517.207031 339.273438 510.804688 331.644531 504.453125 C 318.328125 493.363281 310.542969 487.496094 305.753906 484.390625 C 303.128906 485.355469 300.308594 485.90625 297.351562 485.90625 C 294.398438 485.90625 291.574219 485.355469 288.949219 484.390625 C 284.160156 487.496094 276.378906 493.363281 263.058594 504.453125 C 255.308594 510.910156 247.761719 517.410156 242.8125 521.710938 L 213.320312 475.921875 C 212.171875 474.136719 210.296875 473.097656 208.332031 472.9375 C 207.96875 472.875 207.597656 472.839844 207.214844 472.839844 L 170.488281 472.839844 C 170.105469 472.839844 169.734375 472.875 169.375 472.9375 C 167.40625 473.101562 165.535156 474.136719 164.386719 475.921875 L 131.933594 526.300781 C 129.96875 529.355469 130.847656 533.425781 133.902344 535.394531 C 135.003906 536.101562 136.238281 536.441406 137.460938 536.441406 C 139.621094 536.441406 141.738281 535.378906 142.996094 533.425781 L 163.933594 500.917969 L 163.933594 614.722656 C 163.933594 620.980469 169.007812 626.054688 175.273438 626.054688 C 181.527344 626.054688 186.605469 620.980469 186.605469 614.722656 L 186.605469 556.265625 L 191.097656 556.265625 L 191.097656 614.722656 C 191.097656 620.980469 196.175781 626.054688 202.4375 626.054688 C 208.695312 626.054688 213.769531 620.980469 213.769531 614.722656 L 213.769531 500.917969 L 234.710938 533.425781 C 235.28125 534.308594 236.03125 535 236.878906 535.503906 C 238.035156 536.632812 239.535156 537.238281 241.054688 537.238281 C 242.46875 537.238281 243.890625 536.742188 245.03125 535.730469 C 255.484375 526.496094 266.753906 516.886719 276.300781 509.085938 C 275.359375 513.285156 274.289062 518.234375 273.1875 523.628906 C 269.371094 542.289062 265.234375 566.179688 265.234375 582.007812 C 265.234375 582.007812 275.117188 586.738281 297.351562 586.738281 C 319.585938 586.738281 329.46875 582.007812 329.46875 582.007812 C 329.46875 566.28125 325.382812 542.585938 321.589844 523.976562 C 320.460938 518.449219 319.363281 513.375 318.402344 509.085938 C 327.949219 516.882812 339.222656 526.496094 349.671875 535.730469 C 350.816406 536.742188 352.234375 537.238281 353.648438 537.238281 C 355.308594 537.238281 356.964844 536.550781 358.152344 535.207031 C 358.269531 535.074219 358.355469 534.921875 358.460938 534.777344 C 358.898438 534.390625 359.292969 533.941406 359.625 533.425781 L 380.5625 500.917969 L 380.5625 614.722656 C 380.5625 620.980469 385.636719 626.054688 391.902344 626.054688 C 398.15625 626.054688 403.234375 620.980469 403.234375 614.722656 L 403.234375 556.265625 L 407.726562 556.265625 L 407.726562 614.722656 C 407.726562 620.980469 412.804688 626.054688 419.066406 626.054688 C 425.324219 626.054688 430.398438 620.980469 430.398438 614.722656 L 430.398438 500.917969 L 451.339844 533.425781 C 451.671875 533.941406 452.066406 534.390625 452.503906 534.777344 C 452.609375 534.921875 452.691406 535.074219 452.8125 535.207031 C 454 536.550781 455.652344 537.238281 457.316406 537.238281 C 458.726562 537.238281 460.148438 536.742188 461.289062 535.730469 C 471.742188 526.496094 483.011719 516.886719 492.558594 509.085938 C 491.601562 513.367188 490.503906 518.433594 489.378906 523.953125 C 485.582031 542.5625 481.492188 566.273438 481.492188 582.007812 C 481.492188 582.007812 491.375 586.738281 513.609375 586.738281 Z M 513.609375 586.738281 " fill-opacity="1" fill-rule="nonzero"/></g><g clip-path="url(#624df82620)"><path fill="#ffce40" d="M 277.636719 617.511719 C 277.636719 622.417969 281.617188 626.398438 286.523438 626.398438 C 291.429688 626.398438 295.410156 622.417969 295.410156 617.511719 L 295.410156 589.359375 C 288.171875 589.269531 282.28125 588.683594 277.636719 587.945312 Z M 277.636719 617.511719 " fill-opacity="1" fill-rule="nonzero"/></g><g clip-path="url(#de0f863b5b)"><path fill="#ffce40" d="M 299.292969 617.511719 C 299.292969 622.417969 303.273438 626.398438 308.179688 626.398438 C 313.085938 626.398438 317.066406 622.417969 317.066406 617.511719 L 317.066406 587.945312 C 312.421875 588.683594 306.535156 589.269531 299.292969 589.359375 Z M 299.292969 617.511719 " fill-opacity="1" fill-rule="nonzero"/></g><path fill="#ffce40" d="M 289.226562 457.683594 C 289.6875 454.085938 292.339844 450.992188 296.085938 450.15625 C 299.832031 449.324219 303.546875 451 305.492188 454.066406 L 306.464844 453.847656 C 306.917969 450.300781 309.496094 447.253906 313.152344 446.363281 C 309.175781 442.191406 303.574219 439.578125 297.351562 439.578125 C 285.519531 439.578125 275.90625 448.988281 275.535156 460.730469 Z M 289.226562 457.683594 " fill-opacity="1" fill-rule="nonzero"/><path fill="#ffce40" d="M 297.351562 483.277344 C 308.910156 483.277344 318.347656 474.296875 319.125 462.933594 C 318.515625 463.230469 317.867188 463.46875 317.175781 463.625 C 312.628906 464.636719 308.128906 461.957031 306.785156 457.578125 C 307.425781 462.113281 304.488281 466.453125 299.9375 467.464844 C 295.160156 468.527344 290.421875 465.515625 289.359375 460.738281 C 289.335938 460.640625 289.328125 460.546875 289.308594 460.449219 L 275.605469 463.5 C 276.652344 474.59375 285.984375 483.277344 297.351562 483.277344 Z M 297.351562 483.277344 " fill-opacity="1" fill-rule="nonzero"/><path fill="#ffce40" d="M 321.894531 453.957031 C 321.960938 454.394531 321.984375 454.832031 321.964844 455.273438 C 321.945312 455.714844 321.882812 456.148438 321.777344 456.578125 C 321.671875 457.003906 321.523438 457.417969 321.335938 457.820312 C 321.148438 458.21875 320.925781 458.597656 320.664062 458.953125 C 320.402344 459.304688 320.109375 459.632812 319.78125 459.929688 C 319.457031 460.226562 319.105469 460.492188 318.726562 460.71875 C 318.347656 460.945312 317.953125 461.136719 317.539062 461.285156 C 317.121094 461.4375 316.695312 461.542969 316.261719 461.609375 C 315.824219 461.675781 315.386719 461.699219 314.945312 461.679688 C 314.503906 461.660156 314.070312 461.597656 313.640625 461.492188 C 313.210938 461.386719 312.796875 461.238281 312.398438 461.050781 C 312 460.863281 311.621094 460.640625 311.265625 460.378906 C 310.910156 460.117188 310.585938 459.824219 310.285156 459.496094 C 309.988281 459.171875 309.726562 458.820312 309.5 458.441406 C 309.269531 458.0625 309.082031 457.667969 308.929688 457.253906 C 308.78125 456.839844 308.671875 456.414062 308.605469 455.976562 C 308.539062 455.539062 308.515625 455.101562 308.535156 454.660156 C 308.558594 454.21875 308.621094 453.785156 308.726562 453.355469 C 308.832031 452.929688 308.976562 452.515625 309.164062 452.113281 C 309.351562 451.714844 309.578125 451.335938 309.839844 450.980469 C 310.101562 450.625 310.394531 450.300781 310.71875 450.003906 C 311.046875 449.707031 311.398438 449.441406 311.777344 449.214844 C 312.152344 448.984375 312.550781 448.796875 312.964844 448.648438 C 313.378906 448.496094 313.804688 448.386719 314.242188 448.324219 C 314.679688 448.257812 315.117188 448.234375 315.558594 448.253906 C 316 448.273438 316.433594 448.335938 316.859375 448.441406 C 317.289062 448.546875 317.703125 448.695312 318.101562 448.882812 C 318.503906 449.070312 318.878906 449.292969 319.234375 449.554688 C 319.589844 449.816406 319.917969 450.109375 320.214844 450.4375 C 320.511719 450.761719 320.777344 451.113281 321.003906 451.492188 C 321.230469 451.867188 321.421875 452.265625 321.570312 452.679688 C 321.722656 453.09375 321.828125 453.519531 321.894531 453.957031 Z M 321.894531 453.957031 " fill-opacity="1" fill-rule="nonzero"/><path fill="#ffce40" d="M 296.550781 452.25 C 292.929688 453.058594 290.644531 456.648438 291.453125 460.269531 C 292.257812 463.894531 295.847656 466.175781 299.472656 465.371094 C 303.09375 464.566406 305.378906 460.972656 304.574219 457.351562 C 303.765625 453.726562 300.175781 451.445312 296.550781 452.25 Z M 296.550781 452.25 " fill-opacity="1" fill-rule="nonzero"/><g clip-path="url(#f1837364e8)"><path fill="#66ccff" d="M 515.328125 585.019531 C 537.5625 585.019531 547.445312 580.289062 547.445312 580.289062 C 547.445312 564.449219 543.300781 540.53125 539.484375 521.863281 C 538.386719 516.488281 537.316406 511.550781 536.378906 507.367188 C 545.929688 515.164062 557.199219 524.777344 567.652344 534.011719 C 568.792969 535.023438 570.210938 535.519531 571.625 535.519531 C 573.289062 535.519531 574.941406 534.832031 576.128906 533.488281 C 576.34375 533.246094 576.511719 532.984375 576.679688 532.71875 C 576.980469 532.410156 577.261719 532.082031 577.503906 531.703125 L 598.441406 499.199219 L 598.441406 613.003906 C 598.441406 619.261719 603.519531 624.335938 609.78125 624.335938 C 616.039062 624.335938 621.113281 619.261719 621.113281 613.003906 L 621.113281 554.546875 L 625.609375 554.546875 L 625.609375 613.003906 C 625.609375 619.261719 630.683594 624.335938 636.945312 624.335938 C 643.203125 624.335938 648.28125 619.261719 648.28125 613.003906 L 648.28125 499.195312 L 669.21875 531.703125 C 670.042969 532.988281 671.242188 533.878906 672.578125 534.34375 C 673.421875 534.757812 674.320312 534.96875 675.210938 534.96875 C 677.28125 534.96875 679.300781 533.894531 680.414062 531.972656 C 680.503906 531.820312 689.472656 516.382812 700.359375 501.195312 C 702.515625 498.183594 704.519531 495.507812 706.390625 493.097656 C 705.835938 495.660156 705.246094 498.46875 704.625 501.53125 C 701.144531 518.703125 696.777344 543.632812 693.070312 575.277344 C 693.070312 575.277344 706.257812 580.007812 728.492188 580.007812 C 750.726562 580.007812 763.910156 575.277344 763.910156 575.277344 C 760.398438 545.269531 756.289062 521.289062 752.902344 504.246094 C 752.082031 500.109375 751.308594 496.402344 750.589844 493.097656 C 752.460938 495.507812 754.464844 498.183594 756.621094 501.195312 C 767.511719 516.382812 776.480469 531.820312 776.570312 531.972656 C 777.683594 533.894531 779.699219 534.96875 781.773438 534.96875 C 782.792969 534.96875 783.828125 534.707031 784.777344 534.160156 C 787.648438 532.496094 788.625 528.820312 786.964844 525.953125 C 786.589844 525.304688 777.652344 509.921875 766.433594 494.265625 C 763.414062 490.050781 760.621094 486.371094 758.023438 483.136719 C 757.878906 483.140625 757.738281 483.148438 757.59375 483.148438 C 754.414062 483.148438 749.640625 482.078125 744.964844 476.992188 C 742.03125 473.796875 740.902344 469.578125 740.421875 465.230469 C 735.003906 461.324219 731.261719 460.554688 728.492188 460.554688 C 722.570312 460.554688 712.195312 464.050781 690.546875 494.265625 C 684.515625 502.679688 679.148438 511.015625 675.414062 517.027344 L 647.828125 474.203125 C 646.675781 472.414062 644.804688 471.378906 642.835938 471.214844 C 642.472656 471.15625 642.105469 471.121094 641.722656 471.121094 L 604.996094 471.121094 C 604.613281 471.121094 604.242188 471.15625 603.875 471.21875 C 601.914062 471.382812 600.042969 472.417969 598.894531 474.203125 L 569.566406 519.730469 C 564.621094 515.433594 557.21875 509.058594 549.621094 502.734375 C 548.839844 502.082031 548.085938 501.457031 547.34375 500.84375 C 545.964844 501.464844 544.277344 501.804688 542.644531 501.804688 C 539.730469 501.804688 535.355469 500.828125 531.078125 496.175781 C 528.242188 493.085938 527.25 488.976562 526.851562 484.792969 C 525.691406 483.972656 524.652344 483.269531 523.730469 482.671875 C 521.105469 483.632812 518.285156 484.1875 515.328125 484.1875 C 512.375 484.1875 509.550781 483.632812 506.925781 482.671875 C 502.136719 485.777344 494.355469 491.644531 481.039062 502.734375 C 473.40625 509.085938 465.976562 515.484375 461.027344 519.785156 L 431.667969 474.203125 C 430.515625 472.417969 428.644531 471.378906 426.679688 471.21875 C 426.316406 471.15625 425.945312 471.121094 425.5625 471.121094 L 388.835938 471.121094 C 388.453125 471.121094 388.082031 471.15625 387.71875 471.21875 C 385.753906 471.382812 383.882812 472.417969 382.734375 474.203125 L 353.371094 519.785156 C 348.421875 515.484375 340.992188 509.085938 333.363281 502.734375 C 320.046875 491.644531 312.261719 485.777344 307.472656 482.671875 C 304.847656 483.632812 302.027344 484.1875 299.070312 484.1875 C 296.117188 484.1875 293.292969 483.636719 290.667969 482.671875 C 285.878906 485.777344 278.097656 491.644531 264.78125 502.734375 C 257.027344 509.1875 249.480469 515.691406 244.535156 519.992188 L 215.039062 474.203125 C 213.890625 472.417969 212.015625 471.378906 210.050781 471.214844 C 209.6875 471.15625 209.316406 471.121094 208.933594 471.121094 L 172.207031 471.121094 C 171.828125 471.121094 171.457031 471.15625 171.09375 471.214844 C 169.125 471.382812 167.253906 472.417969 166.105469 474.203125 L 133.65625 524.582031 C 131.6875 527.636719 132.570312 531.707031 135.621094 533.671875 C 136.722656 534.382812 137.957031 534.722656 139.179688 534.722656 C 141.339844 534.722656 143.457031 533.65625 144.714844 531.707031 L 165.652344 499.199219 L 165.652344 613.003906 C 165.652344 619.261719 170.730469 624.335938 176.992188 624.335938 C 183.25 624.335938 188.324219 619.261719 188.324219 613.003906 L 188.324219 554.546875 L 192.820312 554.546875 L 192.820312 613.003906 C 192.820312 619.261719 197.894531 624.335938 204.15625 624.335938 C 210.414062 624.335938 215.492188 619.261719 215.492188 613.003906 L 215.492188 499.199219 L 236.429688 531.703125 C 237 532.589844 237.753906 533.28125 238.601562 533.785156 C 239.753906 534.914062 241.253906 535.519531 242.777344 535.519531 C 244.1875 535.519531 245.609375 535.023438 246.75 534.011719 C 257.203125 524.777344 268.472656 515.164062 278.019531 507.367188 C 277.082031 511.566406 276.007812 516.515625 274.90625 521.90625 C 271.09375 540.570312 266.953125 564.460938 266.953125 580.289062 C 266.953125 580.289062 276.839844 585.019531 299.070312 585.019531 C 321.304688 585.019531 331.1875 580.289062 331.1875 580.289062 C 331.1875 564.5625 327.101562 540.867188 323.308594 522.257812 C 322.183594 516.730469 321.082031 511.65625 320.121094 507.367188 C 329.667969 515.164062 340.941406 524.777344 351.394531 534.011719 C 352.535156 535.023438 353.953125 535.519531 355.367188 535.519531 C 357.03125 535.519531 358.683594 534.832031 359.871094 533.488281 C 359.992188 533.355469 360.074219 533.199219 360.179688 533.058594 C 360.617188 532.667969 361.011719 532.21875 361.34375 531.703125 L 382.28125 499.199219 L 382.28125 613.003906 C 382.28125 619.261719 387.359375 624.335938 393.621094 624.335938 C 399.875 624.335938 404.953125 619.261719 404.953125 613.003906 L 404.953125 554.546875 L 409.445312 554.546875 L 409.445312 613.003906 C 409.445312 619.261719 414.523438 624.335938 420.785156 624.335938 C 427.042969 624.335938 432.121094 619.261719 432.121094 613.003906 L 432.121094 499.195312 L 453.058594 531.703125 C 453.390625 532.21875 453.785156 532.667969 454.222656 533.058594 C 454.328125 533.199219 454.410156 533.355469 454.53125 533.488281 C 455.71875 534.832031 457.371094 535.519531 459.035156 535.519531 C 460.449219 535.519531 461.867188 535.023438 463.007812 534.011719 C 473.460938 524.777344 484.730469 515.167969 494.277344 507.367188 C 493.320312 511.648438 492.222656 516.714844 491.097656 522.230469 C 487.300781 540.84375 483.214844 564.554688 483.214844 580.289062 C 483.214844 580.289062 493.097656 585.019531 515.328125 585.019531 Z M 515.328125 585.019531 " fill-opacity="1" fill-rule="nonzero"/></g><path fill="#66ccff" d="M 191.839844 412.941406 C 195.007812 415.394531 193.835938 418.210938 191.363281 420.675781 C 186.539062 414.558594 170.113281 416.871094 179.28125 418.285156 C 182.609375 418.796875 182.769531 421.425781 181.871094 424.257812 C 173.824219 427.65625 168.175781 435.617188 168.175781 444.902344 C 168.175781 457.269531 178.203125 467.296875 190.570312 467.296875 C 202.941406 467.296875 212.96875 457.269531 212.96875 444.902344 C 212.96875 437.214844 209.09375 430.4375 203.191406 426.402344 C 207.140625 415.296875 181.621094 405.035156 191.839844 412.941406 Z M 191.839844 412.941406 " fill-opacity="1" fill-rule="nonzero"/><g fill="#66ccff" fill-opacity="1"><g transform="translate(108.479277, 389.539497)"><g><path d="M 13.054688 -162.953125 L 11.847656 -162.953125 L 9.671875 -99.125 L 4.835938 -66.246094 C 4.351562 -60.441406 3.867188 -51.980469 3.144531 -40.859375 C 2.175781 -29.496094 1.691406 -21.277344 1.449219 -15.957031 L 0.242188 -9.914062 L 3.144531 -6.042969 L 6.042969 -5.078125 L 11.605469 -4.59375 L 17.164062 -6.285156 C 17.164062 -6.285156 18.617188 -7.011719 21.277344 -8.460938 L 26.351562 -27.078125 C 26.109375 -32.398438 25.871094 -40.617188 25.386719 -51.738281 C 24.902344 -62.859375 24.417969 -71.078125 24.417969 -76.640625 L 27.5625 -95.738281 C 27.5625 -98.640625 27.320312 -103.476562 27.078125 -109.761719 C 26.59375 -116.046875 26.351562 -120.640625 26.351562 -124.027344 L 26.109375 -125.71875 C 26.109375 -125.234375 26.351562 -124.753906 26.59375 -124.269531 C 26.835938 -123.542969 27.078125 -123.058594 27.320312 -122.816406 L 28.285156 -120.640625 L 37.230469 -80.507812 L 39.167969 -69.386719 C 40.617188 -61.894531 41.824219 -54.398438 43.277344 -47.144531 C 44.726562 -39.648438 45.453125 -36.023438 45.453125 -36.265625 L 45.453125 -29.011719 C 45.453125 -26.59375 45.210938 -24.175781 44.96875 -22 C 44.96875 -18.132812 45.453125 -14.746094 46.902344 -11.363281 C 47.386719 -8.945312 49.078125 -6.769531 51.496094 -4.59375 C 53.914062 -2.417969 55.605469 -1.449219 56.816406 -1.449219 C 64.070312 -1.449219 69.144531 -1.691406 71.5625 -2.660156 C 73.496094 -3.144531 74.464844 -4.59375 74.464844 -6.527344 L 74.949219 -8.703125 C 74.949219 -9.1875 75.191406 -9.914062 75.429688 -11.121094 C 75.429688 -12.089844 75.671875 -13.054688 75.914062 -13.78125 L 76.15625 -14.746094 L 93.324219 -92.113281 L 93.5625 -98.15625 L 93.5625 -42.308594 L 93.804688 -4.351562 C 93.804688 -3.144531 94.773438 -1.933594 96.707031 -0.96875 C 98.640625 0 100.816406 0.484375 103.234375 0.484375 C 104.683594 0.484375 105.652344 0.484375 106.136719 0.242188 C 110.972656 -0.726562 115.082031 -3.144531 118.222656 -6.769531 C 119.191406 -7.976562 119.675781 -11.847656 119.675781 -18.617188 C 119.675781 -20.550781 119.433594 -23.210938 119.433594 -26.59375 C 119.191406 -29.738281 119.191406 -31.429688 119.191406 -31.671875 L 120.882812 -44.96875 L 120.882812 -92.597656 L 122.816406 -121.609375 L 123.300781 -142.402344 C 123.300781 -143.125 123.058594 -144.578125 122.816406 -146.996094 C 122.09375 -150.136719 121.851562 -152.554688 121.851562 -154.007812 L 121.851562 -155.214844 C 121.851562 -155.941406 122.09375 -157.390625 122.09375 -159.566406 C 122.09375 -163.433594 120.402344 -166.820312 117.5 -169.722656 C 114.113281 -172.621094 110.003906 -174.074219 104.925781 -174.074219 C 104.445312 -174.074219 103.960938 -173.832031 103.476562 -173.832031 C 102.992188 -173.832031 102.507812 -173.832031 102.507812 -173.832031 C 102.027344 -173.832031 101.300781 -173.589844 100.332031 -173.105469 C 99.367188 -172.621094 98.640625 -171.898438 97.917969 -171.414062 C 96.949219 -170.6875 96.222656 -169.960938 95.5 -169.480469 C 94.773438 -168.753906 94.289062 -168.511719 94.289062 -168.511719 L 82.199219 -164.160156 C 82.199219 -163.675781 81.960938 -162.953125 81.960938 -161.742188 C 81.960938 -160.535156 81.960938 -159.808594 81.960938 -159.324219 L 73.980469 -110.003906 L 68.179688 -88.730469 L 62.132812 -59.714844 L 54.640625 -99.851562 L 49.804688 -128.621094 L 47.144531 -139.257812 C 45.695312 -142.644531 44.484375 -146.996094 43.277344 -151.832031 C 42.066406 -155.214844 40.617188 -158.601562 38.683594 -161.742188 C 36.75 -164.644531 35.296875 -166.820312 34.089844 -168.027344 C 32.640625 -169.238281 31.914062 -169.960938 31.671875 -169.960938 C 29.738281 -170.929688 25.628906 -171.414062 19.339844 -171.414062 L 17.164062 -171.414062 C 14.265625 -170.929688 13.054688 -168.269531 13.054688 -162.953125 Z M 13.054688 -162.953125 "/></g></g></g><g fill="#ffce40" fill-opacity="1"><g transform="translate(242.649682, 389.539497)"><g><path d="M 37.472656 -100.332031 L 33.121094 -100.816406 L 31.1875 -116.046875 C 31.1875 -118.464844 31.1875 -122.09375 31.671875 -126.929688 C 31.914062 -131.761719 32.15625 -135.632812 32.398438 -138.292969 L 36.507812 -140.46875 L 58.507812 -141.191406 L 84.859375 -139.257812 L 90.664062 -140.46875 L 95.015625 -141.917969 L 95.738281 -143.125 C 96.222656 -143.851562 96.464844 -144.578125 96.464844 -145.300781 C 96.464844 -146.027344 96.222656 -146.753906 95.5 -147.238281 C 95.015625 -147.238281 94.046875 -152.3125 92.597656 -162.46875 L 89.9375 -167.0625 L 62.375 -168.511719 L 44 -165.609375 C 42.066406 -165.609375 39.40625 -165.851562 36.023438 -166.335938 C 32.640625 -166.578125 29.980469 -166.820312 28.527344 -166.820312 L 14.746094 -168.269531 L 11.121094 -164.644531 L 11.363281 -164.644531 L 6.527344 -160.292969 L 5.320312 -158.117188 L 5.800781 -132.972656 L 5.320312 -102.507812 L 6.042969 -83.652344 L 3.867188 -47.628906 L 3.144531 -17.890625 L 5.5625 -4.59375 L 14.746094 -3.382812 L 29.253906 -1.449219 L 60.199219 1.449219 L 75.671875 0.726562 L 78.089844 -1.207031 L 81.960938 -6.769531 L 83.167969 -11.121094 L 82.441406 -21.515625 L 80.75 -22.726562 C 79.542969 -23.453125 77.367188 -24.175781 73.980469 -25.144531 C 70.597656 -25.871094 66.484375 -26.351562 62.132812 -26.351562 L 42.550781 -27.5625 L 30.222656 -26.351562 C 30.222656 -29.980469 29.980469 -35.296875 29.738281 -42.308594 C 29.253906 -49.078125 29.011719 -54.640625 29.011719 -58.507812 C 29.011719 -60.199219 29.496094 -63.101562 30.222656 -66.96875 L 31.671875 -75.671875 L 48.113281 -73.253906 L 57.539062 -72.046875 L 61.167969 -73.253906 L 65.277344 -75.191406 L 65.277344 -74.949219 C 66.003906 -74.949219 66.726562 -74.949219 67.453125 -75.429688 L 68.179688 -75.429688 C 68.421875 -75.429688 68.902344 -75.429688 69.386719 -75.671875 C 69.871094 -75.914062 70.113281 -76.398438 70.597656 -76.882812 L 70.839844 -77.125 C 71.804688 -77.609375 72.773438 -78.089844 73.980469 -78.574219 C 75.429688 -78.816406 76.15625 -80.75 75.671875 -84.136719 L 74.949219 -84.859375 C 74.222656 -85.34375 73.496094 -86.070312 73.015625 -87.035156 C 72.53125 -88.003906 72.289062 -89.210938 72.289062 -90.421875 C 72.289062 -93.324219 71.320312 -96.222656 69.871094 -98.882812 C 68.179688 -101.542969 66.003906 -102.75 63.101562 -102.507812 C 59.476562 -101.542969 54.640625 -101.058594 48.355469 -101.058594 Z M 37.472656 -100.332031 "/></g></g></g><g fill="#f25a3c" fill-opacity="1"><g transform="translate(341.035646, 389.539497)"><g><path d="M 63.34375 -74.707031 L 77.847656 -78.816406 L 78.574219 -73.980469 L 75.914062 -23.453125 L 74.707031 -9.1875 C 74.707031 -6.527344 74.707031 -4.835938 74.949219 -3.867188 C 75.191406 -1.207031 78.816406 0 85.585938 0 C 89.9375 0 94.773438 -0.484375 99.851562 -1.449219 C 104.683594 -1.933594 107.101562 -6.769531 107.101562 -15.472656 C 107.101562 -17.40625 106.863281 -18.859375 106.863281 -20.066406 L 110.488281 -53.1875 L 110.488281 -105.652344 L 111.214844 -115.082031 L 109.519531 -162.46875 C 109.039062 -165.851562 107.34375 -168.027344 103.960938 -169.480469 C 100.574219 -170.929688 96.222656 -171.65625 91.148438 -171.65625 C 86.070312 -171.65625 83.410156 -171.898438 83.410156 -171.898438 C 80.992188 -171.898438 78.574219 -170.6875 76.398438 -168.269531 C 73.980469 -165.851562 72.53125 -163.195312 72.046875 -160.777344 C 71.5625 -160.292969 71.5625 -159.566406 71.5625 -159.082031 C 71.5625 -157.390625 72.289062 -156.664062 73.738281 -156.664062 C 74.222656 -156.664062 74.949219 -155.214844 76.15625 -152.796875 L 76.882812 -134.90625 C 76.882812 -132.003906 76.640625 -128.378906 76.398438 -123.542969 C 75.429688 -117.742188 73.253906 -111.9375 69.386719 -106.621094 C 65.519531 -101.300781 61.410156 -98.15625 57.058594 -97.433594 C 54.15625 -97.433594 51.496094 -98.640625 49.078125 -101.542969 C 46.660156 -104.203125 44.96875 -106.378906 44.242188 -108.070312 C 43.519531 -109.761719 43.035156 -111.214844 42.792969 -112.421875 L 37.957031 -137.566406 L 37.957031 -164.644531 C 37.957031 -169.480469 35.539062 -172.140625 30.945312 -172.140625 L 29.980469 -172.140625 L 6.042969 -170.6875 L 5.5625 -170.203125 C 5.078125 -169.722656 4.835938 -169.238281 4.351562 -168.511719 C 3.867188 -167.546875 3.625 -166.578125 3.144531 -165.371094 C 2.660156 -164.160156 2.417969 -162.46875 2.175781 -160.535156 C 1.691406 -158.601562 1.691406 -156.183594 1.691406 -153.765625 L 1.691406 -146.996094 C 1.691406 -138.773438 1.691406 -131.761719 2.175781 -126.203125 C 2.660156 -120.402344 4.109375 -113.632812 6.769531 -105.652344 C 9.429688 -97.675781 13.296875 -92.113281 18.617188 -88.96875 C 24.902344 -84.859375 29.496094 -81.960938 32.878906 -80.023438 L 36.992188 -78.332031 L 43.035156 -76.15625 L 50.046875 -73.015625 L 57.300781 -74.464844 Z M 63.34375 -74.707031 "/></g></g></g><g fill="#9dcd5a" fill-opacity="1"><g transform="translate(461.677097, 389.539497)"><g><path d="M -8.460938 -158.839844 L -7.496094 -152.070312 C -7.253906 -149.414062 -1.691406 -148.203125 8.945312 -148.203125 L 10.394531 -148.203125 L 23.453125 -147.238281 L 41.101562 -147.238281 L 33.605469 -50.046875 L 32.878906 -14.746094 C 32.878906 -7.011719 32.878906 -2.660156 33.363281 -2.175781 C 34.332031 -0.484375 39.40625 0.242188 48.59375 0.242188 L 51.011719 0.242188 L 53.1875 -0.242188 C 54.398438 -0.484375 55.847656 -0.96875 57.300781 -1.691406 C 58.75 -2.175781 59.714844 -2.902344 60.199219 -3.625 C 60.683594 -3.625 60.925781 -5.5625 60.925781 -9.429688 C 60.925781 -12.332031 60.683594 -16.199219 60.441406 -21.035156 C 60.199219 -25.628906 59.957031 -29.738281 59.714844 -33.121094 C 59.234375 -36.507812 58.992188 -38.199219 58.992188 -38.199219 L 58.992188 -53.914062 L 63.101562 -86.3125 L 63.101562 -119.433594 L 65.277344 -138.53125 L 64.550781 -145.300781 L 73.253906 -145.0625 C 74.464844 -145.0625 80.75 -143.851562 92.113281 -141.917969 L 105.167969 -142.160156 C 106.863281 -142.160156 108.796875 -143.367188 111.214844 -145.785156 L 111.695312 -146.996094 C 111.9375 -147.71875 112.179688 -148.929688 112.664062 -150.378906 C 113.148438 -151.832031 113.390625 -153.523438 113.390625 -154.972656 C 113.390625 -156.183594 113.148438 -157.390625 112.90625 -158.359375 C 112.179688 -159.808594 110.972656 -161.257812 109.039062 -162.710938 C 107.101562 -164.160156 105.410156 -165.128906 103.960938 -165.609375 C 102.507812 -166.09375 101.300781 -166.335938 100.574219 -166.578125 C 100.332031 -166.578125 100.09375 -166.578125 99.851562 -166.820312 L 99.367188 -166.820312 C 98.398438 -166.820312 97.191406 -166.335938 95.257812 -165.851562 C 93.324219 -165.371094 91.871094 -165.128906 90.90625 -165.128906 C 89.9375 -165.128906 85.828125 -165.609375 79.058594 -166.820312 C 72.046875 -167.785156 68.179688 -168.511719 67.695312 -168.511719 C 66.246094 -168.511719 50.289062 -168.753906 19.582031 -169.722656 L -1.691406 -167.304688 C -6.285156 -166.820312 -8.460938 -164.160156 -8.460938 -158.839844 Z M -8.460938 -158.839844 "/></g></g></g><g fill="#85dbd9" fill-opacity="1"><g transform="translate(571.438717, 389.539497)"><g><path d="M 127.652344 -3.867188 L 119.917969 -46.175781 L 114.113281 -60.683594 L 114.113281 -60.441406 L 103.234375 -111.453125 L 99.125 -121.609375 L 97.191406 -126.203125 L 85.101562 -161.742188 L 75.191406 -177.699219 L 73.980469 -178.183594 C 73.015625 -178.425781 71.320312 -178.667969 69.144531 -179.148438 C 66.726562 -179.390625 64.308594 -179.632812 61.410156 -179.632812 C 59.476562 -179.632812 57.058594 -178.667969 54.640625 -177.214844 C 52.222656 -175.765625 50.769531 -174.074219 50.769531 -172.378906 C 50.53125 -170.445312 49.078125 -164.160156 46.417969 -154.007812 L 46.417969 -154.246094 L 25.144531 -103.71875 L 0 -25.144531 C 0.484375 -23.453125 -0.242188 -19.824219 -1.691406 -14.507812 C -1.691406 -14.265625 -1.933594 -14.023438 -1.933594 -13.539062 C -2.175781 -13.054688 -2.175781 -12.570312 -2.175781 -12.570312 C -2.660156 -9.671875 -3.144531 -8.460938 -3.144531 -8.460938 C -3.144531 -6.769531 -1.207031 -2.660156 2.175781 3.625 L 10.152344 4.351562 C 12.570312 4.351562 15.957031 2.660156 20.066406 -0.96875 C 22.484375 -17.648438 24.175781 -27.5625 24.660156 -30.945312 C 25.628906 -34.332031 27.5625 -39.648438 29.980469 -46.902344 L 43.035156 -48.59375 L 62.617188 -46.417969 L 91.148438 -46.417969 L 94.53125 -25.871094 L 99.851562 -3.144531 L 101.058594 -0.96875 C 101.542969 0.484375 102.75 1.691406 104.445312 2.902344 C 106.136719 4.351562 108.070312 4.835938 110.246094 4.835938 C 111.695312 4.835938 112.664062 4.835938 113.148438 4.59375 C 117.742188 2.660156 122.578125 0 127.652344 -3.867188 Z M 80.75 -75.191406 L 80.023438 -74.707031 L 74.222656 -74.222656 L 53.1875 -74.222656 L 48.835938 -73.253906 C 47.386719 -72.773438 45.9375 -72.53125 44 -72.289062 L 42.308594 -73.253906 L 46.660156 -82.683594 L 54.640625 -122.816406 L 54.640625 -122.578125 L 58.992188 -131.28125 L 62.375 -140.707031 L 64.550781 -135.632812 L 64.550781 -135.875 C 71.320312 -110.730469 75.914062 -93.804688 78.816406 -84.859375 C 78.816406 -83.652344 79.300781 -81.960938 79.785156 -79.785156 C 80.265625 -77.609375 80.507812 -76.15625 80.75 -75.191406 Z M 80.75 -75.191406 "/></g></g></g><path fill="#f25a3c" d="M 428.738281 445.761719 C 428.738281 446.492188 428.703125 447.226562 428.628906 447.957031 C 428.558594 448.683594 428.449219 449.410156 428.308594 450.128906 C 428.164062 450.847656 427.984375 451.558594 427.773438 452.261719 C 427.558594 452.960938 427.3125 453.652344 427.03125 454.332031 C 426.753906 455.007812 426.4375 455.671875 426.09375 456.316406 C 425.746094 456.964844 425.371094 457.59375 424.964844 458.203125 C 424.554688 458.8125 424.121094 459.398438 423.652344 459.96875 C 423.1875 460.535156 422.695312 461.078125 422.179688 461.59375 C 421.660156 462.113281 421.117188 462.605469 420.550781 463.070312 C 419.980469 463.535156 419.394531 463.972656 418.785156 464.378906 C 418.175781 464.789062 417.546875 465.164062 416.898438 465.511719 C 416.25 465.855469 415.589844 466.167969 414.910156 466.449219 C 414.234375 466.730469 413.542969 466.976562 412.84375 467.191406 C 412.140625 467.402344 411.429688 467.582031 410.710938 467.722656 C 409.992188 467.867188 409.265625 467.976562 408.535156 468.046875 C 407.804688 468.117188 407.074219 468.15625 406.339844 468.15625 C 405.609375 468.15625 404.875 468.117188 404.144531 468.046875 C 403.414062 467.976562 402.691406 467.867188 401.972656 467.722656 C 401.253906 467.582031 400.542969 467.402344 399.839844 467.191406 C 399.136719 466.976562 398.449219 466.730469 397.769531 466.449219 C 397.09375 466.167969 396.429688 465.855469 395.785156 465.511719 C 395.136719 465.164062 394.507812 464.789062 393.898438 464.378906 C 393.289062 463.972656 392.699219 463.535156 392.132812 463.070312 C 391.566406 462.605469 391.023438 462.113281 390.503906 461.59375 C 389.984375 461.078125 389.492188 460.535156 389.027344 459.96875 C 388.5625 459.398438 388.125 458.8125 387.71875 458.203125 C 387.3125 457.59375 386.933594 456.964844 386.589844 456.316406 C 386.242188 455.671875 385.929688 455.007812 385.648438 454.332031 C 385.367188 453.652344 385.121094 452.960938 384.910156 452.261719 C 384.695312 451.558594 384.519531 450.847656 384.375 450.128906 C 384.230469 449.410156 384.125 448.683594 384.050781 447.957031 C 383.980469 447.226562 383.945312 446.492188 383.945312 445.761719 C 383.945312 445.027344 383.980469 444.296875 384.050781 443.566406 C 384.125 442.835938 384.230469 442.109375 384.375 441.390625 C 384.519531 440.671875 384.695312 439.960938 384.910156 439.257812 C 385.121094 438.558594 385.367188 437.867188 385.648438 437.191406 C 385.929688 436.511719 386.242188 435.851562 386.589844 435.203125 C 386.933594 434.554688 387.3125 433.929688 387.71875 433.316406 C 388.125 432.707031 388.5625 432.121094 389.027344 431.554688 C 389.492188 430.984375 389.984375 430.441406 390.503906 429.925781 C 391.023438 429.40625 391.566406 428.914062 392.132812 428.449219 C 392.699219 427.984375 393.289062 427.546875 393.898438 427.140625 C 394.507812 426.730469 395.136719 426.355469 395.785156 426.007812 C 396.429688 425.664062 397.09375 425.351562 397.769531 425.070312 C 398.449219 424.789062 399.136719 424.542969 399.839844 424.328125 C 400.542969 424.117188 401.253906 423.9375 401.972656 423.796875 C 402.691406 423.652344 403.414062 423.546875 404.144531 423.472656 C 404.875 423.402344 405.609375 423.367188 406.339844 423.367188 C 407.074219 423.367188 407.804688 423.402344 408.535156 423.472656 C 409.265625 423.546875 409.992188 423.652344 410.710938 423.796875 C 411.429688 423.9375 412.140625 424.117188 412.84375 424.328125 C 413.542969 424.542969 414.234375 424.789062 414.910156 425.070312 C 415.589844 425.351562 416.25 425.664062 416.898438 426.007812 C 417.546875 426.355469 418.175781 426.730469 418.785156 427.140625 C 419.394531 427.546875 419.980469 427.984375 420.550781 428.449219 C 421.117188 428.914062 421.660156 429.40625 422.179688 429.925781 C 422.695312 430.441406 423.1875 430.984375 423.652344 431.554688 C 424.121094 432.121094 424.554688 432.707031 424.964844 433.316406 C 425.371094 433.929688 425.746094 434.554688 426.09375 435.203125 C 426.4375 435.851562 426.753906 436.511719 427.03125 437.191406 C 427.3125 437.867188 427.558594 438.558594 427.773438 439.257812 C 427.984375 439.960938 428.164062 440.671875 428.308594 441.390625 C 428.449219 442.109375 428.558594 442.835938 428.628906 443.566406 C 428.703125 444.296875 428.738281 445.027344 428.738281 445.761719 Z M 428.738281 445.761719 " fill-opacity="1" fill-rule="nonzero"/><g clip-path="url(#0b04346c0f)"><path fill="#f25a3c" d="M 514.46875 585.878906 C 536.703125 585.878906 546.585938 581.148438 546.585938 581.148438 C 546.585938 565.308594 542.441406 541.390625 538.625 522.722656 C 537.527344 517.347656 536.457031 512.410156 535.519531 508.226562 C 545.066406 516.023438 556.339844 525.636719 566.792969 534.871094 C 567.933594 535.882812 569.351562 536.378906 570.765625 536.378906 C 572.429688 536.378906 574.082031 535.691406 575.269531 534.347656 C 575.480469 534.105469 575.652344 533.84375 575.820312 533.582031 C 576.121094 533.273438 576.402344 532.941406 576.644531 532.566406 L 597.582031 500.058594 L 597.582031 613.863281 C 597.582031 620.121094 602.660156 625.195312 608.921875 625.195312 C 615.175781 625.195312 620.253906 620.121094 620.253906 613.863281 L 620.253906 555.40625 L 624.746094 555.40625 L 624.746094 613.863281 C 624.746094 620.121094 629.824219 625.195312 636.085938 625.195312 C 642.34375 625.195312 647.421875 620.121094 647.421875 613.863281 L 647.421875 500.058594 L 668.359375 532.566406 C 669.183594 533.847656 670.382812 534.738281 671.71875 535.203125 C 672.5625 535.617188 673.460938 535.828125 674.351562 535.828125 C 676.421875 535.828125 678.4375 534.753906 679.554688 532.832031 C 679.640625 532.679688 688.613281 517.242188 699.5 502.054688 C 701.65625 499.042969 703.660156 496.367188 705.53125 493.957031 C 704.976562 496.519531 704.382812 499.328125 703.765625 502.390625 C 700.285156 519.5625 695.917969 544.492188 692.210938 576.136719 C 692.210938 576.136719 705.398438 580.867188 727.632812 580.867188 C 749.863281 580.867188 763.050781 576.136719 763.050781 576.136719 C 759.539062 546.128906 755.425781 522.148438 752.042969 505.105469 C 751.222656 500.96875 750.449219 497.261719 749.730469 493.957031 C 751.601562 496.367188 753.605469 499.042969 755.761719 502.054688 C 766.652344 517.242188 775.621094 532.679688 775.710938 532.832031 C 776.824219 534.753906 778.839844 535.828125 780.914062 535.828125 C 781.933594 535.828125 782.96875 535.566406 783.917969 535.019531 C 786.789062 533.355469 787.765625 529.679688 786.105469 526.8125 C 785.730469 526.164062 776.792969 510.78125 765.574219 495.125 C 762.554688 490.910156 759.761719 487.234375 757.164062 483.996094 C 757.019531 484 756.878906 484.007812 756.734375 484.007812 C 753.554688 484.007812 748.78125 482.941406 744.105469 477.851562 C 741.171875 474.65625 740.042969 470.4375 739.5625 466.089844 C 734.144531 462.183594 730.398438 461.417969 727.628906 461.417969 C 721.710938 461.417969 711.335938 464.910156 689.6875 495.125 C 683.65625 503.539062 678.289062 511.875 674.550781 517.886719 L 646.96875 475.0625 C 645.816406 473.273438 643.945312 472.238281 641.976562 472.074219 C 641.613281 472.015625 641.246094 471.980469 640.863281 471.980469 L 604.136719 471.980469 C 603.753906 471.980469 603.382812 472.015625 603.015625 472.078125 C 601.054688 472.242188 599.183594 473.277344 598.035156 475.0625 L 568.707031 520.589844 C 563.757812 516.292969 556.359375 509.917969 548.761719 503.59375 C 547.980469 502.941406 547.226562 502.316406 546.484375 501.703125 C 545.101562 502.324219 543.417969 502.664062 541.785156 502.664062 C 538.867188 502.664062 534.492188 501.6875 530.21875 497.035156 C 527.378906 493.945312 526.390625 489.835938 525.992188 485.652344 C 524.832031 484.832031 523.792969 484.128906 522.871094 483.53125 C 520.246094 484.496094 517.425781 485.046875 514.46875 485.046875 C 511.515625 485.046875 508.691406 484.496094 506.066406 483.53125 C 501.277344 486.636719 493.496094 492.503906 480.179688 503.59375 C 472.546875 509.945312 465.117188 516.347656 460.167969 520.644531 L 430.808594 475.0625 C 429.65625 473.277344 427.785156 472.238281 425.820312 472.078125 C 425.457031 472.015625 425.085938 471.980469 424.703125 471.980469 L 387.976562 471.980469 C 387.59375 471.980469 387.222656 472.015625 386.859375 472.078125 C 384.894531 472.242188 383.023438 473.277344 381.871094 475.0625 L 352.511719 520.644531 C 347.5625 516.34375 340.132812 509.945312 332.503906 503.59375 C 319.1875 492.503906 311.402344 486.636719 306.613281 483.53125 C 303.988281 484.496094 301.167969 485.046875 298.210938 485.046875 C 295.257812 485.046875 292.433594 484.496094 289.808594 483.53125 C 285.019531 486.636719 277.238281 492.503906 263.921875 503.59375 C 256.167969 510.050781 248.621094 516.550781 243.671875 520.851562 L 214.179688 475.0625 C 213.03125 473.277344 211.15625 472.238281 209.191406 472.078125 C 208.828125 472.015625 208.457031 471.980469 208.074219 471.980469 L 171.347656 471.980469 C 170.96875 471.980469 170.597656 472.015625 170.234375 472.078125 C 168.265625 472.242188 166.394531 473.277344 165.246094 475.0625 L 132.792969 525.441406 C 130.828125 528.496094 131.707031 532.566406 134.761719 534.53125 C 135.863281 535.242188 137.097656 535.582031 138.320312 535.582031 C 140.480469 535.582031 142.597656 534.515625 143.855469 532.566406 L 164.792969 500.058594 L 164.792969 613.863281 C 164.792969 620.121094 169.871094 625.195312 176.132812 625.195312 C 182.390625 625.195312 187.464844 620.121094 187.464844 613.863281 L 187.464844 555.40625 L 191.957031 555.40625 L 191.957031 613.863281 C 191.957031 620.121094 197.035156 625.195312 203.296875 625.195312 C 209.554688 625.195312 214.632812 620.121094 214.632812 613.863281 L 214.632812 500.058594 L 235.570312 532.566406 C 236.140625 533.449219 236.890625 534.140625 237.738281 534.644531 C 238.894531 535.773438 240.394531 536.378906 241.917969 536.378906 C 243.328125 536.378906 244.75 535.882812 245.890625 534.871094 C 256.34375 525.636719 267.613281 516.027344 277.160156 508.226562 C 276.21875 512.425781 275.148438 517.375 274.046875 522.765625 C 270.234375 541.429688 266.09375 565.320312 266.09375 581.148438 C 266.09375 581.148438 275.976562 585.878906 298.210938 585.878906 C 320.445312 585.878906 330.328125 581.148438 330.328125 581.148438 C 330.328125 565.421875 326.242188 541.726562 322.449219 523.117188 C 321.324219 517.589844 320.222656 512.515625 319.261719 508.226562 C 328.808594 516.023438 340.082031 525.636719 350.53125 534.871094 C 351.675781 535.882812 353.09375 536.378906 354.507812 536.378906 C 356.171875 536.378906 357.824219 535.691406 359.011719 534.347656 C 359.128906 534.214844 359.214844 534.058594 359.320312 533.917969 C 359.757812 533.527344 360.152344 533.078125 360.484375 532.566406 L 381.421875 500.058594 L 381.421875 613.863281 C 381.421875 620.121094 386.496094 625.195312 392.761719 625.195312 C 399.015625 625.195312 404.09375 620.121094 404.09375 613.863281 L 404.09375 555.40625 L 408.585938 555.40625 L 408.585938 613.863281 C 408.585938 620.121094 413.664062 625.195312 419.925781 625.195312 C 426.183594 625.195312 431.257812 620.121094 431.257812 613.863281 L 431.257812 500.058594 L 452.199219 532.566406 C 452.53125 533.078125 452.925781 533.527344 453.363281 533.917969 C 453.46875 534.058594 453.550781 534.214844 453.671875 534.347656 C 454.859375 535.691406 456.511719 536.378906 458.175781 536.378906 C 459.589844 536.378906 461.007812 535.882812 462.148438 534.871094 C 472.601562 525.636719 483.871094 516.027344 493.417969 508.226562 C 492.460938 512.507812 491.363281 517.574219 490.238281 523.089844 C 486.441406 541.703125 482.351562 565.414062 482.351562 581.148438 C 482.351562 581.148438 492.234375 585.878906 514.46875 585.878906 Z M 514.46875 585.878906 " fill-opacity="1" fill-rule="nonzero"/></g><g clip-path="url(#0b2669e41b)"><path fill="#9dcd5a" d="M 492.171875 617.511719 C 492.171875 622.417969 496.148438 626.398438 501.058594 626.398438 C 505.964844 626.398438 509.941406 622.417969 509.941406 617.511719 L 509.941406 589.359375 C 502.703125 589.269531 496.8125 588.683594 492.171875 587.945312 Z M 492.171875 617.511719 " fill-opacity="1" fill-rule="nonzero"/></g><g clip-path="url(#17dca2b72c)"><path fill="#9dcd5a" d="M 513.828125 617.511719 C 513.828125 622.417969 517.808594 626.398438 522.714844 626.398438 C 527.621094 626.398438 531.601562 622.417969 531.601562 617.511719 L 531.601562 587.945312 C 526.957031 588.683594 521.066406 589.269531 513.828125 589.359375 Z M 513.828125 617.511719 " fill-opacity="1" fill-rule="nonzero"/></g><g clip-path="url(#03594a71cd)"><path fill="#9dcd5a" d="M 511.886719 586.738281 C 534.121094 586.738281 544.003906 582.007812 544.003906 582.007812 C 544.003906 566.167969 539.859375 542.25 536.042969 523.582031 C 534.945312 518.207031 533.871094 513.269531 532.9375 509.085938 C 542.484375 516.882812 553.753906 526.496094 564.207031 535.730469 C 565.351562 536.742188 566.769531 537.238281 568.183594 537.238281 C 569.84375 537.238281 571.496094 536.550781 572.683594 535.207031 C 572.898438 534.964844 573.070312 534.703125 573.238281 534.441406 C 573.535156 534.132812 573.816406 533.800781 574.058594 533.425781 L 595 500.917969 L 595 614.722656 C 595 620.980469 600.074219 626.054688 606.335938 626.054688 C 612.59375 626.054688 617.671875 620.980469 617.671875 614.722656 L 617.671875 556.265625 L 622.164062 556.265625 L 622.164062 614.722656 C 622.164062 620.980469 627.242188 626.054688 633.5 626.054688 C 639.757812 626.054688 644.835938 620.980469 644.835938 614.722656 L 644.835938 500.917969 L 665.773438 533.425781 C 666.601562 534.707031 667.796875 535.597656 669.132812 536.0625 C 669.980469 536.476562 670.875 536.6875 671.765625 536.6875 C 673.839844 536.6875 675.855469 535.613281 676.96875 533.691406 C 677.058594 533.539062 686.027344 518.101562 696.914062 502.914062 C 699.074219 499.902344 701.074219 497.226562 702.945312 494.816406 C 702.390625 497.378906 701.800781 500.1875 701.179688 503.25 C 697.699219 520.421875 693.332031 545.351562 689.628906 576.996094 C 689.628906 576.996094 702.8125 581.726562 725.046875 581.726562 C 747.28125 581.726562 760.464844 576.996094 760.464844 576.996094 C 756.953125 546.988281 752.84375 523.011719 749.460938 505.964844 C 748.636719 501.828125 747.863281 498.121094 747.148438 494.816406 C 749.019531 497.226562 751.019531 499.902344 753.179688 502.914062 C 764.066406 518.101562 773.035156 533.539062 773.125 533.691406 C 774.238281 535.613281 776.253906 536.6875 778.328125 536.6875 C 779.351562 536.6875 780.386719 536.425781 781.332031 535.878906 C 784.203125 534.214844 785.183594 530.542969 783.519531 527.671875 C 783.144531 527.023438 774.207031 511.640625 762.988281 495.984375 C 759.96875 491.769531 757.175781 488.09375 754.578125 484.855469 C 754.4375 484.859375 754.292969 484.867188 754.152344 484.867188 C 750.96875 484.867188 746.195312 483.800781 741.523438 478.710938 C 738.585938 475.515625 737.460938 471.296875 736.980469 466.949219 C 731.5625 463.042969 727.816406 462.277344 725.046875 462.277344 C 719.125 462.277344 708.75 465.769531 687.105469 495.984375 C 681.074219 504.402344 675.703125 512.734375 671.96875 518.746094 L 644.386719 475.921875 C 643.234375 474.136719 641.359375 473.097656 639.390625 472.933594 C 639.03125 472.875 638.660156 472.839844 638.28125 472.839844 L 601.554688 472.839844 C 601.171875 472.839844 600.796875 472.878906 600.433594 472.9375 C 598.46875 473.101562 596.597656 474.136719 595.449219 475.921875 L 566.125 521.449219 C 561.175781 517.152344 553.777344 510.78125 546.175781 504.453125 C 545.398438 503.800781 544.644531 503.175781 543.898438 502.5625 C 542.519531 503.183594 540.832031 503.523438 539.203125 503.523438 C 536.285156 503.523438 531.910156 502.546875 527.636719 497.894531 C 524.796875 494.804688 523.804688 490.695312 523.410156 486.511719 C 522.246094 485.691406 521.210938 484.988281 520.289062 484.390625 C 517.664062 485.355469 514.839844 485.90625 511.886719 485.90625 C 508.929688 485.90625 506.109375 485.355469 503.484375 484.390625 C 498.695312 487.496094 490.910156 493.363281 477.59375 504.453125 C 469.964844 510.804688 462.535156 517.207031 457.585938 521.507812 L 428.222656 475.921875 C 427.074219 474.136719 425.199219 473.101562 423.234375 472.9375 C 422.871094 472.875 422.5 472.839844 422.121094 472.839844 L 385.390625 472.839844 C 385.011719 472.839844 384.640625 472.875 384.277344 472.9375 C 382.3125 473.101562 380.441406 474.136719 379.289062 475.921875 L 349.929688 521.507812 C 344.980469 517.207031 337.550781 510.804688 329.917969 504.453125 C 316.601562 493.363281 308.820312 487.496094 304.03125 484.390625 C 301.402344 485.355469 298.582031 485.90625 295.628906 485.90625 C 292.671875 485.90625 289.851562 485.355469 287.226562 484.390625 C 282.433594 487.496094 274.652344 493.363281 261.335938 504.453125 C 253.582031 510.910156 246.035156 517.410156 241.089844 521.710938 L 211.597656 475.921875 C 210.445312 474.136719 208.574219 473.097656 206.605469 472.9375 C 206.242188 472.875 205.871094 472.839844 205.492188 472.839844 L 168.765625 472.839844 C 168.382812 472.839844 168.011719 472.875 167.648438 472.9375 C 165.683594 473.101562 163.8125 474.136719 162.660156 475.921875 L 130.210938 526.300781 C 128.242188 529.355469 129.125 533.425781 132.179688 535.394531 C 133.28125 536.101562 134.515625 536.441406 135.734375 536.441406 C 137.894531 536.441406 140.011719 535.378906 141.269531 533.425781 L 162.210938 500.917969 L 162.210938 614.722656 C 162.210938 620.980469 167.285156 626.054688 173.546875 626.054688 C 179.804688 626.054688 184.882812 620.980469 184.882812 614.722656 L 184.882812 556.265625 L 189.375 556.265625 L 189.375 614.722656 C 189.375 620.980469 194.449219 626.054688 200.710938 626.054688 C 206.96875 626.054688 212.046875 620.980469 212.046875 614.722656 L 212.046875 500.917969 L 232.984375 533.425781 C 233.554688 534.308594 234.308594 535 235.15625 535.503906 C 236.3125 536.632812 237.808594 537.238281 239.332031 537.238281 C 240.746094 537.238281 242.164062 536.742188 243.308594 535.730469 C 253.757812 526.496094 265.027344 516.886719 274.578125 509.085938 C 273.636719 513.285156 272.5625 518.234375 271.460938 523.628906 C 267.648438 542.289062 263.511719 566.179688 263.511719 582.007812 C 263.511719 582.007812 273.394531 586.738281 295.628906 586.738281 C 317.863281 586.738281 327.746094 582.007812 327.746094 582.007812 C 327.746094 566.28125 323.660156 542.585938 319.863281 523.976562 C 318.738281 518.449219 317.636719 513.375 316.679688 509.085938 C 326.226562 516.882812 337.496094 526.496094 347.949219 535.730469 C 349.089844 536.742188 350.511719 537.238281 351.925781 537.238281 C 353.585938 537.238281 355.238281 536.550781 356.425781 535.207031 C 356.546875 535.074219 356.632812 534.921875 356.738281 534.777344 C 357.171875 534.390625 357.566406 533.941406 357.898438 533.425781 L 378.839844 500.917969 L 378.839844 614.722656 C 378.839844 620.980469 383.914062 626.054688 390.175781 626.054688 C 396.433594 626.054688 401.507812 620.980469 401.507812 614.722656 L 401.507812 556.265625 L 406.003906 556.265625 L 406.003906 614.722656 C 406.003906 620.980469 411.078125 626.054688 417.339844 626.054688 C 423.597656 626.054688 428.675781 620.980469 428.675781 614.722656 L 428.675781 500.917969 L 449.613281 533.425781 C 449.945312 533.941406 450.339844 534.390625 450.777344 534.777344 C 450.882812 534.921875 450.96875 535.074219 451.085938 535.207031 C 452.273438 536.550781 453.929688 537.238281 455.589844 537.238281 C 457.003906 537.238281 458.421875 536.742188 459.566406 535.730469 C 470.015625 526.496094 481.285156 516.886719 490.835938 509.085938 C 489.875 513.367188 488.777344 518.433594 487.652344 523.953125 C 483.859375 542.5625 479.769531 566.273438 479.769531 582.007812 C 479.769531 582.007812 489.652344 586.738281 511.886719 586.738281 Z M 511.886719 586.738281 " fill-opacity="1" fill-rule="nonzero"/></g><path fill="#9dcd5a" d="M 525.773438 481.5625 C 525.929688 486.855469 526.269531 492.519531 529.574219 496.117188 C 537.992188 505.277344 547.167969 498.425781 543.46875 498.511719 C 539.765625 498.601562 535.203125 496.332031 535.808594 482.675781 C 536.019531 477.925781 535.351562 474.316406 534.144531 471.554688 C 532.296875 475.597656 529.394531 479.058594 525.773438 481.5625 Z M 525.773438 481.5625 " fill-opacity="1" fill-rule="nonzero"/><path fill="#9dcd5a" d="M 520.246094 441.230469 C 520.90625 441.507812 521.550781 441.8125 522.183594 442.148438 C 522.816406 442.484375 523.429688 442.855469 524.023438 443.25 C 524.617188 443.648438 525.191406 444.074219 525.746094 444.527344 C 526.296875 444.980469 526.828125 445.460938 527.335938 445.96875 C 527.839844 446.472656 528.320312 447.003906 528.773438 447.558594 C 529.226562 448.109375 529.652344 448.683594 530.050781 449.28125 C 530.449219 449.875 530.816406 450.488281 531.152344 451.117188 C 531.492188 451.75 531.796875 452.394531 532.070312 453.058594 C 532.34375 453.71875 532.585938 454.390625 532.792969 455.074219 C 533 455.761719 533.175781 456.453125 533.3125 457.15625 C 533.453125 457.855469 533.558594 458.5625 533.628906 459.277344 C 533.699219 459.988281 533.734375 460.703125 533.734375 461.417969 C 533.734375 462.132812 533.699219 462.847656 533.628906 463.558594 C 533.558594 464.273438 533.453125 464.980469 533.3125 465.679688 C 533.175781 466.382812 533 467.074219 532.792969 467.761719 C 532.585938 468.445312 532.34375 469.117188 532.070312 469.78125 C 531.796875 470.441406 531.492188 471.085938 531.152344 471.71875 C 530.816406 472.347656 530.449219 472.960938 530.050781 473.558594 C 529.652344 474.152344 529.226562 474.726562 528.773438 475.277344 C 528.320312 475.832031 527.839844 476.363281 527.335938 476.867188 C 526.828125 477.375 526.296875 477.855469 525.746094 478.308594 C 525.191406 478.761719 524.617188 479.1875 524.023438 479.585938 C 523.429688 479.984375 522.816406 480.351562 522.183594 480.6875 C 521.550781 481.023438 520.90625 481.332031 520.246094 481.605469 C 519.582031 481.878906 518.910156 482.117188 518.226562 482.328125 C 517.542969 482.535156 516.847656 482.707031 516.144531 482.847656 C 515.445312 482.988281 514.738281 483.09375 514.023438 483.160156 C 513.3125 483.230469 512.597656 483.265625 511.882812 483.265625 C 511.167969 483.265625 510.453125 483.230469 509.742188 483.160156 C 509.027344 483.09375 508.320312 482.988281 507.621094 482.847656 C 506.917969 482.707031 506.226562 482.535156 505.539062 482.328125 C 504.855469 482.117188 504.183594 481.878906 503.519531 481.605469 C 502.859375 481.332031 502.214844 481.023438 501.582031 480.6875 C 500.953125 480.351562 500.339844 479.984375 499.742188 479.585938 C 499.148438 479.1875 498.574219 478.761719 498.019531 478.308594 C 497.46875 477.855469 496.9375 477.375 496.433594 476.867188 C 495.925781 476.363281 495.445312 475.832031 494.992188 475.277344 C 494.539062 474.726562 494.113281 474.152344 493.714844 473.558594 C 493.316406 472.960938 492.949219 472.347656 492.613281 471.71875 C 492.273438 471.085938 491.96875 470.441406 491.695312 469.78125 C 491.421875 469.117188 491.179688 468.445312 490.972656 467.761719 C 490.765625 467.074219 490.59375 466.382812 490.453125 465.679688 C 490.3125 464.980469 490.207031 464.273438 490.136719 463.558594 C 490.066406 462.847656 490.03125 462.132812 490.03125 461.417969 C 490.03125 460.703125 490.066406 459.988281 490.136719 459.277344 C 490.207031 458.5625 490.3125 457.855469 490.453125 457.15625 C 490.59375 456.453125 490.765625 455.761719 490.972656 455.074219 C 491.179688 454.390625 491.421875 453.71875 491.695312 453.058594 C 491.96875 452.394531 492.273438 451.75 492.613281 451.117188 C 492.949219 450.488281 493.316406 449.875 493.714844 449.28125 C 494.113281 448.683594 494.539062 448.109375 494.992188 447.558594 C 495.445312 447.003906 495.925781 446.472656 496.433594 445.96875 C 496.9375 445.460938 497.46875 444.980469 498.019531 444.527344 C 498.574219 444.074219 499.148438 443.648438 499.742188 443.25 C 500.339844 442.855469 500.953125 442.484375 501.582031 442.148438 C 502.214844 441.8125 502.859375 441.507812 503.519531 441.230469 C 504.183594 440.957031 504.855469 440.71875 505.539062 440.507812 C 506.226562 440.300781 506.917969 440.128906 507.621094 439.988281 C 508.320312 439.847656 509.027344 439.746094 509.742188 439.675781 C 510.453125 439.605469 511.167969 439.570312 511.882812 439.570312 C 512.597656 439.570312 513.3125 439.605469 514.023438 439.675781 C 514.738281 439.746094 515.445312 439.847656 516.144531 439.988281 C 516.847656 440.128906 517.542969 440.300781 518.226562 440.507812 C 518.910156 440.71875 519.582031 440.957031 520.246094 441.230469 Z M 520.246094 441.230469 " fill-opacity="1" fill-rule="nonzero"/><path fill="#85dbd9" d="M 624.921875 446.433594 C 623.855469 451.210938 619.121094 454.222656 614.339844 453.160156 C 609.617188 452.109375 606.625 447.46875 607.582031 442.75 C 606.230469 447.113281 601.734375 449.785156 597.195312 448.777344 C 596.882812 448.707031 596.578125 448.617188 596.28125 448.519531 C 596.824219 460.402344 606.605469 469.875 618.625 469.875 C 630.433594 469.875 640.085938 460.726562 640.9375 449.132812 L 625.0625 445.601562 C 625.027344 445.878906 624.980469 446.15625 624.921875 446.433594 Z M 624.921875 446.433594 " fill-opacity="1" fill-rule="nonzero"/><path fill="#85dbd9" d="M 607.804688 441.878906 C 607.816406 441.84375 607.824219 441.804688 607.835938 441.769531 L 607.824219 441.765625 C 607.816406 441.804688 607.8125 441.839844 607.804688 441.878906 Z M 607.804688 441.878906 " fill-opacity="1" fill-rule="nonzero"/><path fill="#85dbd9" d="M 607.910156 439 L 609.113281 439.269531 C 611.132812 436.519531 614.648438 435.0625 618.191406 435.851562 C 621.734375 436.640625 624.304688 439.449219 624.960938 442.796875 L 640.964844 446.355469 C 640.574219 438.535156 636.191406 431.777344 629.792969 428.085938 C 628.457031 424.8125 628.113281 421.449219 631.925781 420.863281 C 641.09375 419.449219 624.667969 417.140625 619.84375 423.253906 C 617.371094 420.789062 616.199219 417.972656 619.367188 415.519531 C 629.261719 407.867188 605.660156 417.242188 607.726562 427.921875 C 605.792969 429 604.042969 430.359375 602.519531 431.941406 C 605.480469 433.164062 607.511719 435.890625 607.910156 439 Z M 607.910156 439 " fill-opacity="1" fill-rule="nonzero"/><g clip-path="url(#0f40a403f6)"><path fill="#85dbd9" d="M 510.59375 587.601562 C 532.828125 587.601562 542.710938 582.867188 542.710938 582.867188 C 542.710938 567.027344 538.566406 543.109375 534.75 524.441406 C 533.648438 519.066406 532.578125 514.128906 531.640625 509.945312 C 541.191406 517.742188 552.460938 527.355469 562.914062 536.59375 C 564.058594 537.601562 565.476562 538.097656 566.890625 538.097656 C 568.550781 538.097656 570.203125 537.410156 571.390625 536.066406 C 571.605469 535.828125 571.777344 535.5625 571.945312 535.300781 C 572.242188 534.992188 572.523438 534.660156 572.765625 534.285156 L 593.707031 501.777344 L 593.707031 615.582031 C 593.707031 621.839844 598.78125 626.914062 605.042969 626.914062 C 611.300781 626.914062 616.375 621.839844 616.375 615.582031 L 616.375 557.125 L 620.871094 557.125 L 620.871094 615.582031 C 620.871094 621.839844 625.945312 626.914062 632.207031 626.914062 C 638.464844 626.914062 643.542969 621.839844 643.542969 615.582031 L 643.542969 501.777344 L 664.480469 534.285156 C 665.308594 535.566406 666.503906 536.457031 667.839844 536.921875 C 668.683594 537.335938 669.582031 537.546875 670.472656 537.546875 C 672.546875 537.546875 674.5625 536.472656 675.675781 534.550781 C 675.765625 534.398438 684.734375 518.960938 695.621094 503.773438 C 697.78125 500.761719 699.78125 498.085938 701.652344 495.675781 C 701.097656 498.238281 700.507812 501.046875 699.886719 504.109375 C 696.40625 521.28125 692.039062 546.210938 688.335938 577.855469 C 688.335938 577.855469 701.519531 582.585938 723.753906 582.585938 C 745.988281 582.585938 759.171875 577.855469 759.171875 577.855469 C 755.660156 547.851562 751.550781 523.871094 748.167969 506.824219 C 747.34375 502.691406 746.570312 498.980469 745.851562 495.675781 C 747.726562 498.085938 749.726562 500.761719 751.886719 503.773438 C 762.773438 518.960938 771.742188 534.398438 771.832031 534.550781 C 772.945312 536.476562 774.960938 537.546875 777.035156 537.546875 C 778.058594 537.546875 779.09375 537.285156 780.039062 536.738281 C 782.910156 535.074219 783.890625 531.402344 782.226562 528.53125 C 781.851562 527.882812 772.914062 512.5 761.695312 496.84375 C 758.675781 492.628906 755.882812 488.953125 753.285156 485.714844 C 753.140625 485.71875 753 485.726562 752.859375 485.726562 C 749.675781 485.726562 744.902344 484.660156 740.230469 479.570312 C 737.292969 476.375 736.167969 472.15625 735.683594 467.808594 C 730.265625 463.902344 726.523438 463.136719 723.753906 463.136719 C 717.832031 463.136719 707.457031 466.628906 685.808594 496.84375 C 679.78125 505.261719 674.410156 513.59375 670.675781 519.605469 L 643.09375 476.78125 C 641.941406 474.996094 640.066406 473.957031 638.097656 473.796875 C 637.734375 473.738281 637.367188 473.699219 636.988281 473.699219 L 600.257812 473.699219 C 599.875 473.699219 599.503906 473.738281 599.140625 473.796875 C 597.175781 473.960938 595.304688 474.996094 594.15625 476.78125 L 564.828125 522.3125 C 559.882812 518.011719 552.484375 511.640625 544.882812 505.3125 C 544.105469 504.660156 543.351562 504.035156 542.605469 503.421875 C 541.226562 504.042969 539.539062 504.382812 537.910156 504.382812 C 534.992188 504.382812 530.617188 503.40625 526.34375 498.753906 C 523.503906 495.664062 522.511719 491.558594 522.113281 487.371094 C 520.953125 486.550781 519.917969 485.847656 518.996094 485.25 C 516.367188 486.214844 513.546875 486.765625 510.59375 486.765625 C 507.636719 486.765625 504.816406 486.214844 502.191406 485.25 C 497.398438 488.355469 489.617188 494.222656 476.300781 505.3125 C 468.667969 511.667969 461.238281 518.066406 456.292969 522.367188 L 426.929688 476.78125 C 425.78125 474.996094 423.90625 473.960938 421.941406 473.796875 C 421.578125 473.738281 421.207031 473.699219 420.828125 473.699219 L 384.097656 473.699219 C 383.71875 473.699219 383.347656 473.738281 382.984375 473.796875 C 381.015625 473.960938 379.144531 474.996094 377.996094 476.78125 L 348.632812 522.367188 C 343.6875 518.066406 336.257812 511.667969 328.625 505.3125 C 315.308594 494.222656 307.527344 488.355469 302.734375 485.25 C 300.109375 486.214844 297.289062 486.765625 294.335938 486.765625 C 291.378906 486.765625 288.558594 486.214844 285.933594 485.25 C 281.140625 488.355469 273.359375 494.222656 260.042969 505.3125 C 252.289062 511.769531 244.742188 518.269531 239.796875 522.570312 L 210.304688 476.78125 C 209.152344 474.996094 207.28125 473.960938 205.3125 473.796875 C 204.949219 473.738281 204.578125 473.699219 204.199219 473.699219 L 167.46875 473.699219 C 167.089844 473.699219 166.71875 473.738281 166.355469 473.796875 C 164.390625 473.960938 162.519531 474.996094 161.367188 476.78125 L 128.917969 527.160156 C 126.949219 530.214844 127.832031 534.285156 130.886719 536.253906 C 131.988281 536.960938 133.222656 537.300781 134.441406 537.300781 C 136.601562 537.300781 138.71875 536.238281 139.976562 534.285156 L 160.917969 501.777344 L 160.917969 615.582031 C 160.917969 621.839844 165.992188 626.914062 172.253906 626.914062 C 178.511719 626.914062 183.585938 621.839844 183.585938 615.582031 L 183.585938 557.125 L 188.082031 557.125 L 188.082031 615.582031 C 188.082031 621.839844 193.15625 626.914062 199.417969 626.914062 C 205.675781 626.914062 210.753906 621.839844 210.753906 615.582031 L 210.753906 501.777344 L 231.691406 534.285156 C 232.261719 535.167969 233.015625 535.863281 233.863281 536.367188 C 235.019531 537.492188 236.515625 538.097656 238.039062 538.097656 C 239.453125 538.097656 240.871094 537.601562 242.015625 536.59375 C 252.464844 527.355469 263.734375 517.746094 273.28125 509.949219 C 272.34375 514.144531 271.269531 519.09375 270.167969 524.488281 C 266.355469 543.148438 262.21875 567.039062 262.21875 582.867188 C 262.21875 582.867188 272.101562 587.601562 294.335938 587.601562 C 316.570312 587.601562 326.453125 582.867188 326.453125 582.867188 C 326.453125 567.140625 322.363281 543.445312 318.570312 524.835938 C 317.445312 519.308594 316.34375 514.234375 315.382812 509.945312 C 324.933594 517.742188 336.203125 527.355469 346.65625 536.59375 C 347.796875 537.601562 349.21875 538.097656 350.628906 538.097656 C 352.292969 538.097656 353.945312 537.410156 355.132812 536.066406 C 355.253906 535.933594 355.339844 535.78125 355.441406 535.636719 C 355.878906 535.25 356.273438 534.800781 356.605469 534.285156 L 377.546875 501.777344 L 377.546875 615.582031 C 377.546875 621.839844 382.621094 626.914062 388.882812 626.914062 C 395.140625 626.914062 400.214844 621.839844 400.214844 615.582031 L 400.214844 557.125 L 404.710938 557.125 L 404.710938 615.582031 C 404.710938 621.839844 409.785156 626.914062 416.046875 626.914062 C 422.304688 626.914062 427.382812 621.839844 427.382812 615.582031 L 427.382812 501.777344 L 448.320312 534.285156 C 448.652344 534.800781 449.046875 535.25 449.484375 535.636719 C 449.589844 535.78125 449.675781 535.933594 449.792969 536.066406 C 450.980469 537.410156 452.636719 538.097656 454.296875 538.097656 C 455.710938 538.097656 457.128906 537.601562 458.273438 536.59375 C 468.722656 527.355469 479.992188 517.746094 489.539062 509.949219 C 488.582031 514.226562 487.484375 519.292969 486.359375 524.8125 C 482.566406 543.425781 478.476562 567.132812 478.476562 582.867188 C 478.476562 582.867188 488.359375 587.601562 510.59375 587.601562 Z M 510.59375 587.601562 " fill-opacity="1" fill-rule="nonzero"/></g><path fill="#85dbd9" d="M 622.84375 443.109375 C 622.933594 443.539062 622.984375 443.976562 622.988281 444.417969 C 622.992188 444.859375 622.953125 445.296875 622.871094 445.730469 C 622.792969 446.164062 622.667969 446.585938 622.503906 446.996094 C 622.339844 447.40625 622.136719 447.792969 621.894531 448.164062 C 621.652344 448.535156 621.378906 448.875 621.070312 449.191406 C 620.761719 449.507812 620.425781 449.789062 620.0625 450.039062 C 619.695312 450.289062 619.3125 450.5 618.90625 450.671875 C 618.5 450.84375 618.082031 450.976562 617.648438 451.070312 C 617.21875 451.160156 616.78125 451.207031 616.339844 451.210938 C 615.898438 451.214844 615.460938 451.179688 615.027344 451.097656 C 614.59375 451.015625 614.171875 450.894531 613.761719 450.726562 C 613.351562 450.5625 612.964844 450.359375 612.59375 450.121094 C 612.222656 449.878906 611.882812 449.605469 611.566406 449.296875 C 611.25 448.988281 610.96875 448.648438 610.71875 448.285156 C 610.46875 447.921875 610.257812 447.535156 610.085938 447.132812 C 609.914062 446.726562 609.78125 446.304688 609.6875 445.875 C 609.597656 445.441406 609.550781 445.007812 609.546875 444.566406 C 609.542969 444.125 609.578125 443.6875 609.660156 443.253906 C 609.742188 442.820312 609.863281 442.398438 610.03125 441.988281 C 610.195312 441.578125 610.398438 441.1875 610.636719 440.820312 C 610.878906 440.449219 611.152344 440.105469 611.460938 439.792969 C 611.769531 439.476562 612.109375 439.195312 612.472656 438.945312 C 612.835938 438.695312 613.222656 438.484375 613.625 438.3125 C 614.03125 438.136719 614.453125 438.003906 614.882812 437.914062 C 615.316406 437.824219 615.753906 437.777344 616.191406 437.769531 C 616.632812 437.765625 617.070312 437.804688 617.503906 437.886719 C 617.941406 437.96875 618.359375 438.089844 618.769531 438.253906 C 619.179688 438.417969 619.570312 438.621094 619.9375 438.863281 C 620.308594 439.105469 620.652344 439.378906 620.96875 439.6875 C 621.28125 439.996094 621.566406 440.332031 621.8125 440.695312 C 622.0625 441.0625 622.273438 441.445312 622.449219 441.851562 C 622.621094 442.257812 622.753906 442.675781 622.84375 443.109375 Z M 622.84375 443.109375 " fill-opacity="1" fill-rule="nonzero"/><path fill="#85dbd9" d="M 605.457031 437.890625 C 605.605469 438.308594 605.707031 438.734375 605.769531 439.171875 C 605.832031 439.609375 605.847656 440.046875 605.824219 440.488281 C 605.800781 440.925781 605.730469 441.363281 605.621094 441.789062 C 605.511719 442.214844 605.359375 442.628906 605.167969 443.027344 C 604.976562 443.421875 604.75 443.796875 604.484375 444.152344 C 604.21875 444.503906 603.921875 444.828125 603.59375 445.121094 C 603.261719 445.414062 602.910156 445.675781 602.527344 445.898438 C 602.148438 446.121094 601.75 446.308594 601.332031 446.453125 C 600.917969 446.597656 600.488281 446.703125 600.054688 446.765625 C 599.617188 446.828125 599.175781 446.84375 598.738281 446.820312 C 598.296875 446.796875 597.863281 446.726562 597.433594 446.617188 C 597.007812 446.507812 596.59375 446.355469 596.199219 446.164062 C 595.800781 445.972656 595.425781 445.746094 595.070312 445.480469 C 594.71875 445.214844 594.394531 444.917969 594.101562 444.589844 C 593.808594 444.257812 593.546875 443.902344 593.324219 443.523438 C 593.101562 443.144531 592.914062 442.746094 592.769531 442.328125 C 592.625 441.914062 592.519531 441.484375 592.457031 441.050781 C 592.398438 440.613281 592.378906 440.171875 592.402344 439.734375 C 592.429688 439.292969 592.496094 438.859375 592.605469 438.429688 C 592.714844 438.003906 592.867188 437.589844 593.058594 437.195312 C 593.25 436.796875 593.476562 436.421875 593.742188 436.070312 C 594.007812 435.714844 594.304688 435.390625 594.636719 435.097656 C 594.964844 434.804688 595.320312 434.546875 595.699219 434.320312 C 596.078125 434.097656 596.476562 433.910156 596.894531 433.765625 C 597.3125 433.621094 597.738281 433.515625 598.175781 433.457031 C 598.613281 433.394531 599.050781 433.375 599.492188 433.398438 C 599.929688 433.425781 600.367188 433.492188 600.792969 433.601562 C 601.21875 433.710938 601.632812 433.863281 602.03125 434.054688 C 602.429688 434.246094 602.804688 434.476562 603.15625 434.738281 C 603.507812 435.003906 603.832031 435.304688 604.125 435.632812 C 604.417969 435.960938 604.679688 436.316406 604.902344 436.695312 C 605.128906 437.074219 605.3125 437.472656 605.457031 437.890625 Z M 605.457031 437.890625 " fill-opacity="1" fill-rule="nonzero"/><g clip-path="url(#5e0639a4a3)"><path fill="#85dbd9" d="M 687.5625 546.347656 C 687.5 539.246094 681.613281 533.539062 674.421875 533.609375 C 667.320312 533.671875 661.582031 539.335938 661.515625 546.347656 L 661.515625 549.964844 C 661.453125 551.722656 659.960938 553.101562 658.179688 553.046875 C 656.492188 552.984375 655.121094 551.640625 655.070312 549.964844 L 655.070312 546.347656 C 655.097656 535.730469 663.84375 527.140625 674.59375 527.167969 C 685.308594 527.203125 693.984375 535.773438 694.007812 546.347656 L 694.007812 623.757812 C 693.945312 625.515625 692.460938 626.894531 690.683594 626.832031 C 688.984375 626.78125 687.613281 625.429688 687.5625 623.757812 L 687.5625 546.347656 " fill-opacity="1" fill-rule="nonzero"/></g></svg>